<?xml version="1.0" encoding="utf-8"?>
<!-- Generator: Adobe Illustrator 24.1.2, SVG Export Plug-In . SVG Version: 6.00 Build 0)  -->
<svg version="1.1" id="Layer_1" xmlns="http://www.w3.org/2000/svg" xmlns:xlink="http://www.w3.org/1999/xlink" x="0px" y="0px"
	 viewBox="0 0 256 256" style="enable-background:new 0 0 256 256;" xml:space="preserve">
<style type="text/css">
	.st0{fill:none;}
	.st1{fill:#D9AB6A;stroke:#B67D2F;stroke-width:1.0059;stroke-miterlimit:10;}
</style>
<rect class="st0" width="256" height="256"/>
<path class="st1" d="M182.7,118.5l3,27.9c0,0.1,0,0.2,0.1,0.2c1,1.9,1,2.9,1,5.9c0,8.5-4.6,35.1-5.1,36.5l0,0
	c-0.3,0.6-0.6,1.3-0.9,1.9c-1,1.7-2.1,3.3-3.1,4.9c-8.1,12.6-15.7,22.2-22.9,29.3c-39.6,39.7-63.3,4.3-64.9,1.8
	c-0.1-0.1-0.1-0.2-0.2-0.3c-37.3-48.2,19.4-75.3,32.7-80.9c0.4-0.2,0.2-0.7-0.2-0.7c-17,1.7-103.6,5.5-90.8-100.4
	c0,0,5.6-103.7,137,54.4l5.2,6.4C175.3,107.8,182.7,115.5,182.7,118.5z"/>
</svg>
